<mxfile host="app.diagrams.net" modified="2023-05-25T03:42:39.469Z" agent="Mozilla/5.0 (Macintosh; Intel Mac OS X 10_15_7) AppleWebKit/537.36 (KHTML, like Gecko) Chrome/113.0.0.0 Safari/537.36" etag="fyX0BpELMu5ovsbyZ6AA" version="21.3.2" type="github">
  <diagram name="第 1 页" id="KPdWBSgJGvTVy5CmeSln">
    <mxGraphModel dx="1834" dy="1596" grid="1" gridSize="10" guides="1" tooltips="1" connect="1" arrows="1" fold="1" page="0" pageScale="1" pageWidth="827" pageHeight="1169" math="0" shadow="0">
      <root>
        <mxCell id="0" />
        <mxCell id="1" parent="0" />
        <mxCell id="WN0TrOZoKTcmKVf8WNJ2-1" value="" style="ellipse;whiteSpace=wrap;html=1;" vertex="1" parent="1">
          <mxGeometry x="-280" y="-280" width="500" height="340" as="geometry" />
        </mxCell>
        <mxCell id="WN0TrOZoKTcmKVf8WNJ2-8" value="" style="edgeStyle=orthogonalEdgeStyle;rounded=0;orthogonalLoop=1;jettySize=auto;html=1;" edge="1" parent="1" source="WN0TrOZoKTcmKVf8WNJ2-4" target="WN0TrOZoKTcmKVf8WNJ2-7">
          <mxGeometry relative="1" as="geometry" />
        </mxCell>
        <mxCell id="WN0TrOZoKTcmKVf8WNJ2-4" value="预测式外呼" style="rounded=0;whiteSpace=wrap;html=1;fontSize=16;" vertex="1" parent="1">
          <mxGeometry x="-280" y="-480" width="120" height="40" as="geometry" />
        </mxCell>
        <mxCell id="WN0TrOZoKTcmKVf8WNJ2-16" value="" style="edgeStyle=orthogonalEdgeStyle;rounded=0;orthogonalLoop=1;jettySize=auto;html=1;" edge="1" parent="1" source="WN0TrOZoKTcmKVf8WNJ2-5" target="WN0TrOZoKTcmKVf8WNJ2-15">
          <mxGeometry relative="1" as="geometry" />
        </mxCell>
        <mxCell id="WN0TrOZoKTcmKVf8WNJ2-5" value="一键外呼" style="rounded=0;whiteSpace=wrap;html=1;fontSize=16;" vertex="1" parent="1">
          <mxGeometry x="-280" y="-420" width="120" height="40" as="geometry" />
        </mxCell>
        <mxCell id="WN0TrOZoKTcmKVf8WNJ2-22" value="" style="edgeStyle=orthogonalEdgeStyle;rounded=0;orthogonalLoop=1;jettySize=auto;html=1;" edge="1" parent="1" source="WN0TrOZoKTcmKVf8WNJ2-6" target="WN0TrOZoKTcmKVf8WNJ2-21">
          <mxGeometry relative="1" as="geometry" />
        </mxCell>
        <mxCell id="WN0TrOZoKTcmKVf8WNJ2-6" value="智能外呼" style="rounded=0;whiteSpace=wrap;html=1;fontSize=16;" vertex="1" parent="1">
          <mxGeometry x="-280" y="-360" width="120" height="40" as="geometry" />
        </mxCell>
        <mxCell id="WN0TrOZoKTcmKVf8WNJ2-10" value="" style="edgeStyle=orthogonalEdgeStyle;rounded=0;orthogonalLoop=1;jettySize=auto;html=1;" edge="1" parent="1" source="WN0TrOZoKTcmKVf8WNJ2-7" target="WN0TrOZoKTcmKVf8WNJ2-9">
          <mxGeometry relative="1" as="geometry" />
        </mxCell>
        <mxCell id="WN0TrOZoKTcmKVf8WNJ2-7" value="创建外呼任务" style="rounded=0;whiteSpace=wrap;html=1;fontSize=16;" vertex="1" parent="1">
          <mxGeometry x="-120" y="-480" width="120" height="40" as="geometry" />
        </mxCell>
        <mxCell id="WN0TrOZoKTcmKVf8WNJ2-12" value="" style="edgeStyle=orthogonalEdgeStyle;rounded=0;orthogonalLoop=1;jettySize=auto;html=1;" edge="1" parent="1" source="WN0TrOZoKTcmKVf8WNJ2-9" target="WN0TrOZoKTcmKVf8WNJ2-11">
          <mxGeometry relative="1" as="geometry" />
        </mxCell>
        <mxCell id="WN0TrOZoKTcmKVf8WNJ2-9" value="修改外呼任务" style="rounded=0;whiteSpace=wrap;html=1;fontSize=16;" vertex="1" parent="1">
          <mxGeometry x="40" y="-480" width="120" height="40" as="geometry" />
        </mxCell>
        <mxCell id="WN0TrOZoKTcmKVf8WNJ2-14" value="" style="edgeStyle=orthogonalEdgeStyle;rounded=0;orthogonalLoop=1;jettySize=auto;html=1;" edge="1" parent="1" source="WN0TrOZoKTcmKVf8WNJ2-11" target="WN0TrOZoKTcmKVf8WNJ2-13">
          <mxGeometry relative="1" as="geometry" />
        </mxCell>
        <mxCell id="WN0TrOZoKTcmKVf8WNJ2-11" value="启动外呼任务" style="rounded=0;whiteSpace=wrap;html=1;fontSize=16;" vertex="1" parent="1">
          <mxGeometry x="200" y="-480" width="120" height="40" as="geometry" />
        </mxCell>
        <mxCell id="WN0TrOZoKTcmKVf8WNJ2-13" value="记录话务数据" style="rounded=0;whiteSpace=wrap;html=1;fontSize=16;" vertex="1" parent="1">
          <mxGeometry x="360" y="-480" width="120" height="40" as="geometry" />
        </mxCell>
        <mxCell id="WN0TrOZoKTcmKVf8WNJ2-18" value="" style="edgeStyle=orthogonalEdgeStyle;rounded=0;orthogonalLoop=1;jettySize=auto;html=1;" edge="1" parent="1" source="WN0TrOZoKTcmKVf8WNJ2-15" target="WN0TrOZoKTcmKVf8WNJ2-17">
          <mxGeometry relative="1" as="geometry" />
        </mxCell>
        <mxCell id="WN0TrOZoKTcmKVf8WNJ2-15" value="获取简历密号" style="rounded=0;whiteSpace=wrap;html=1;fontSize=16;" vertex="1" parent="1">
          <mxGeometry x="-120" y="-420" width="120" height="40" as="geometry" />
        </mxCell>
        <mxCell id="WN0TrOZoKTcmKVf8WNJ2-20" value="" style="edgeStyle=orthogonalEdgeStyle;rounded=0;orthogonalLoop=1;jettySize=auto;html=1;" edge="1" parent="1" source="WN0TrOZoKTcmKVf8WNJ2-17" target="WN0TrOZoKTcmKVf8WNJ2-19">
          <mxGeometry relative="1" as="geometry" />
        </mxCell>
        <mxCell id="WN0TrOZoKTcmKVf8WNJ2-17" value="启动外呼" style="rounded=0;whiteSpace=wrap;html=1;fontSize=16;" vertex="1" parent="1">
          <mxGeometry x="200" y="-420" width="120" height="40" as="geometry" />
        </mxCell>
        <mxCell id="WN0TrOZoKTcmKVf8WNJ2-19" value="记录话务数据" style="rounded=0;whiteSpace=wrap;html=1;fontSize=16;" vertex="1" parent="1">
          <mxGeometry x="360" y="-420" width="120" height="40" as="geometry" />
        </mxCell>
        <mxCell id="WN0TrOZoKTcmKVf8WNJ2-24" value="" style="edgeStyle=orthogonalEdgeStyle;rounded=0;orthogonalLoop=1;jettySize=auto;html=1;" edge="1" parent="1" source="WN0TrOZoKTcmKVf8WNJ2-21" target="WN0TrOZoKTcmKVf8WNJ2-23">
          <mxGeometry relative="1" as="geometry" />
        </mxCell>
        <mxCell id="WN0TrOZoKTcmKVf8WNJ2-21" value="创建AI-lab任务" style="rounded=0;whiteSpace=wrap;html=1;fontSize=16;" vertex="1" parent="1">
          <mxGeometry x="-120" y="-360" width="120" height="40" as="geometry" />
        </mxCell>
        <mxCell id="WN0TrOZoKTcmKVf8WNJ2-26" value="" style="edgeStyle=orthogonalEdgeStyle;rounded=0;orthogonalLoop=1;jettySize=auto;html=1;" edge="1" parent="1" source="WN0TrOZoKTcmKVf8WNJ2-23" target="WN0TrOZoKTcmKVf8WNJ2-25">
          <mxGeometry relative="1" as="geometry" />
        </mxCell>
        <mxCell id="WN0TrOZoKTcmKVf8WNJ2-23" value="启动AI-lab" style="rounded=0;whiteSpace=wrap;html=1;fontSize=16;" vertex="1" parent="1">
          <mxGeometry x="200" y="-360" width="120" height="40" as="geometry" />
        </mxCell>
        <mxCell id="WN0TrOZoKTcmKVf8WNJ2-25" value="记录AI-lab结果" style="rounded=0;whiteSpace=wrap;html=1;fontSize=16;" vertex="1" parent="1">
          <mxGeometry x="360" y="-360" width="120" height="40" as="geometry" />
        </mxCell>
      </root>
    </mxGraphModel>
  </diagram>
</mxfile>
